<?xml version="1.0" encoding="UTF-8"?>
<svg width="423px" height="340px" viewBox="0 0 423 340" version="1.1" xmlns="http://www.w3.org/2000/svg" xmlns:xlink="http://www.w3.org/1999/xlink">
    <!-- Generator: Sketch 61.2 (89653) - https://sketch.com -->
    <title>Group 2</title>
    <desc>Created with Sketch.</desc>
    <defs>
        <linearGradient x1="-0.9%" y1="79.3%" x2="95.8%" y2="13.7%" id="linearGradient-1">
            <stop stop-color="#E936FC" offset="2.6%"></stop>
            <stop stop-color="#E936FC" stop-opacity="0.769" offset="17.3%"></stop>
            <stop stop-color="#E936FC" stop-opacity="0.537" offset="33.8%"></stop>
            <stop stop-color="#E936FC" stop-opacity="0.345" offset="49.7%"></stop>
            <stop stop-color="#E936FC" stop-opacity="0.196" offset="64.6%"></stop>
            <stop stop-color="#E936FC" stop-opacity="0.086" offset="78.4%"></stop>
            <stop stop-color="#E936FC" stop-opacity="0.024" offset="90.7%"></stop>
            <stop stop-color="#E936FC" stop-opacity="0" offset="100%"></stop>
        </linearGradient>
        <linearGradient x1="-5.1%" y1="43.9%" x2="92.2%" y2="-21.1%" id="linearGradient-2">
            <stop stop-color="#E936FC" stop-opacity="0" offset="0%"></stop>
            <stop stop-color="#E936FC" stop-opacity="0.008" offset="36.4%"></stop>
            <stop stop-color="#E936FC" stop-opacity="0.035" offset="49.5%"></stop>
            <stop stop-color="#E936FC" stop-opacity="0.082" offset="58.8%"></stop>
            <stop stop-color="#E936FC" stop-opacity="0.149" offset="66.4%"></stop>
            <stop stop-color="#E936FC" stop-opacity="0.235" offset="72.9%"></stop>
            <stop stop-color="#E936FC" stop-opacity="0.345" offset="78.6%"></stop>
            <stop stop-color="#E936FC" stop-opacity="0.471" offset="83.8%"></stop>
            <stop stop-color="#E936FC" stop-opacity="0.624" offset="88.5%"></stop>
            <stop stop-color="#E936FC" stop-opacity="0.792" offset="93%"></stop>
            <stop stop-color="#E936FC" stop-opacity="0.976" offset="96.9%"></stop>
            <stop stop-color="#E936FC" offset="97.4%"></stop>
        </linearGradient>
        <linearGradient x1="50%" y1="100%" x2="50%" y2="0%" id="linearGradient-3">
            <stop stop-color="#FF3792" offset="2.6%"></stop>
            <stop stop-color="#F63792" offset="17.4%"></stop>
            <stop stop-color="#E03792" offset="40.8%"></stop>
            <stop stop-color="#BB3792" offset="69.8%"></stop>
            <stop stop-color="#8D3792" offset="100%"></stop>
        </linearGradient>
    </defs>
    <g id="Page-1" stroke="none" stroke-width="1" fill="none" fill-rule="evenodd">
        <g id="Group-2">
            <g id="salewhat">
                <g id="Group_5" transform="translate(0.786000, 0.000000)">
                    <path d="M375.635,78.215 C369.416,46.206 328.197,74.851 313.835,83.669 C299.695,92.353 275.829,97.595 267.37,78.641 C262.937,68.706 258.388,54.341 244.801,61.878 C236.545,66.459 230.101,66.638 223.071,60.295 C220.513,57.985 218.212,55.842 215.922,53.895 C197.665576,28.000176 167.95241,12.6062396 136.269,12.627977 C82.4212369,12.627977 38.7689734,56.2802369 38.7689734,110.128 C38.7564185,127.108899 43.199702,143.795866 51.655,158.522 C62.226,176.817 85.073,190.252 84.408,213.722 C83.803,235.103 61.321,247.808 58.13,267.765 C54.719,289.101 76.173,301.556 94.054,299.842 C114.083,297.923 131.922,287.968 150.439,280.877 C173.939,271.877 199.515,275.403 223.869,277.89 C249.869,280.547 290.707,282.827 312.149,264.79 C335.685953,250.06524 349.976565,224.253403 349.963,196.49 C349.969037,185.860568 347.879534,175.334216 343.814,165.513 C338.303,152.269 315.022,131.018 333.49,117.854 C344.14,110.264 359.853,110.86 370.007,102.154 C376.837,96.295 377.318,86.892 375.635,78.215 Z" id="Path_16" fill="url(#linearGradient-1)" fill-rule="nonzero" opacity="0.2"></path>
                    <path d="M414.474,49.739 C406.14,18.215 366.918,49.539 353.174,59.292 C339.644,68.897 316.174,75.716 306.474,57.367 C301.391,47.748 295.896,33.716 282.841,42.143 C274.908,47.263 268.487,47.869 261.053,42.008 C258.347,39.873 255.909,37.888 253.496,36.096 C233.557192,11.4732483 202.885715,-1.9096652 171.274,0.22 C117.54599,3.80110875 76.8936534,50.258939 80.474,103.987 C81.5884552,120.931666 87.1296372,137.28729 96.544,151.42 C108.308,168.972 131.999,180.857 132.897,204.32 C133.716,225.695 112.128,239.866 110.272,259.991 C108.288,281.505 130.523,292.506 148.249,289.607 C168.106,286.36 185.249,275.24 203.249,266.932 C226.099,256.39 251.854,258.207 276.318,259.068 C302.44,259.989 343.337,259.548 363.532,240.122 C386.037323,223.864213 398.579302,197.158983 396.719,169.458 C396.017218,158.851141 393.230732,148.486774 388.519,138.958 C382.14,126.11 357.497,106.458 375.049,92.092 C385.169,83.81 400.888,83.359 410.439,73.992 C416.874,67.699 416.73,58.286 414.474,49.739 Z" id="Path_17" fill="url(#linearGradient-2)" fill-rule="nonzero" opacity="0.2"></path>
                    <path d="M264.57,251.266 C251.479121,246.977843 237.789311,244.799949 224.014,244.814 C205.363423,244.819504 186.931169,248.82705 169.962,256.566 C165.329,258.681 160.991,261.233 156.536,263.688 C151.066,266.701 144.852,269.561 138.482,269.561 C124.412775,269.561 113.008,258.154225 113.008,244.085 C113.008,234.777 118.899,229.877 124.379,223.298 C130.410886,216.065898 133.725958,206.953341 133.751,197.536 C133.751,184.294 126.845,173.236 118.24,163.777 C109.941573,154.696854 103.886978,143.798034 100.562,131.955 C98.6702286,125.125103 97.7141699,118.070049 97.7199735,110.983 C97.7199735,67.7645092 132.755509,32.729 175.974,32.729 C196.374,32.729 217.351,40.978 231.55,55.81 C235.740208,60.2224723 239.491208,65.0321257 242.75,70.171 C245.379264,74.5021931 250.057542,77.1698774 255.124,77.227 C258.220065,77.2321222 261.234249,76.2327744 263.714,74.379 L266.157,72.954 C267.564233,72.3490373 269.080243,72.0380086 270.612,72.04 C273.872984,72.04972 276.971165,73.4661354 279.112,75.926 C281.075,78.174 281.587,81.66 282.473,84.394 C283.382157,87.089077 284.928651,89.5247694 286.981,91.494 C291.146586,95.8446278 296.90175,98.3150455 302.925,98.338 C307.529832,98.3466866 312.021747,96.9129108 315.77,94.238 C315.77,94.238 325.616,88.129 330.316,80.045 C334.751,72.416 342.531,66.828 351.961,66.828 C358.411677,66.8277348 364.598227,69.3901387 369.159544,73.951456 C373.720861,78.5127732 376.283024,84.6993232 376.283024,91.15 C376.294307,99.0959412 372.330034,106.52079 365.721,110.932 C358.831,115.544 351.2,115.417 343.287,114.838 C336.954,114.188 329.622,118.389 327.45,124.317 C323.932,133.917 331.522,141.806 337.045,148.566 C343.039454,155.925021 347.356473,164.503089 349.695,173.702 C351.017613,178.949968 351.683044,184.341937 351.676,189.754 C351.677857,207.073206 344.798651,223.683595 332.552123,235.930123 C320.305595,248.176651 303.695206,255.055857 286.376,255.054 C279.251565,255.061354 272.17409,253.900973 265.425,251.619 L264.57,251.266 Z" id="Path_18" fill="url(#linearGradient-3)" fill-rule="nonzero"></path>
                    <path d="M86.519,141.856 L5.555,156.149 C4.31921139,156.366975 3.04744887,156.085057 2.01953775,155.365276 C0.991626632,154.645494 0.291785473,153.546822 0.074,152.311 L0.074,152.311 C-0.379984283,149.737689 1.3377778,147.283487 3.911,146.829 L62.511,136.485" id="Path_20" stroke="#FC3A91" stroke-width="1.557"></path>
                    <path d="M299.874,20.412 C300.174,21.743 299.765,22.967 298.961,23.146 L231.467,38.289 C230.667,38.469 229.773,37.536 229.474,36.206 L229.474,36.206 C229.174,34.876 229.583,33.652 230.386,33.472 L297.881,18.33 C298.681,18.15 299.575,19.082 299.874,20.412 Z" id="Path_21" fill="#8D3792" fill-rule="nonzero"></path>
                    <path d="M298.058,259.997 L387.851,239.854 C389.262,239.537 390.83,241.176 391.351,243.517 L391.351,243.517 C391.876,245.854 391.158,248.007 389.751,248.324 L271.072,274.947" id="Path_22" stroke="#8D3792" stroke-width="0.779"></path>
                    <path d="M107.16,216.705 C107.159448,229.268697 96.974697,239.453448 84.411,239.454 C78.3774168,239.454 72.5908627,237.05762 68.3243814,232.791326 C64.0579,228.525032 61.661,222.738583 61.661,216.705 C61.661,210.671417 64.0579,204.884968 68.3243814,200.618674 C72.5908627,196.35238 78.3774168,193.956 84.411,193.956 C96.9749258,193.956 107.16,204.141074 107.16,216.705 L107.16,216.705 Z" id="Path_23" fill="#FC3A91" fill-rule="nonzero"></path>
                    <path d="M103.52,173.39 C103.52,178.515917 99.3649165,182.671448 94.239,182.672 C89.1129217,182.671448 84.9575522,178.516078 84.957,173.39 C84.957,168.263693 89.112693,164.108 94.239,164.108 C99.3649165,164.108552 103.52,168.264083 103.52,173.39 L103.52,173.39 Z" id="Path_24" stroke="#FC3A91" stroke-width="0.779"></path>
                    <path d="M287.458,57.517 C287.458,61.2692226 284.416223,64.311 280.664,64.311 C276.913149,64.3076919 273.873308,61.2678515 273.87,57.517 C273.873308,53.7661485 276.913149,50.7263081 280.664,50.723 C282.465881,50.723 284.193961,51.4387944 285.468083,52.7129165 C286.742206,53.9870387 287.458,55.7151192 287.458,57.517 Z" id="Path_25" fill="#FDC055" fill-rule="nonzero"></path>
                    <path d="M263.434,58.246 C263.434,59.2755704 263.025005,60.2629723 262.296989,60.9909885 C261.568972,61.7190047 260.58157,62.128 259.552,62.128 C258.52243,62.128 257.535028,61.7190047 256.807011,60.9909885 C256.078995,60.2629723 255.67,59.2755704 255.67,58.246 C255.67,56.1020306 257.408031,54.3639999 259.552,54.3639999 C260.581652,54.3637347 261.569208,54.7726447 262.297282,55.5007185 C263.025355,56.2287922 263.434265,57.2163483 263.434,58.246 L263.434,58.246 Z" id="Path_26" stroke="#8D3792" stroke-width="0.779"></path>
                    <path d="M298.62,75.716 C298.62,76.7879847 297.750985,77.657 296.679,77.657 C295.607015,77.657 294.738,76.7879847 294.738,75.716 C294.738552,74.6444058 295.607406,73.7759997 296.679,73.7759997 C297.193693,73.7757347 297.687397,73.9800098 298.051434,74.3438592 C298.415471,74.7077085 298.62,75.2013067 298.62,75.716 Z" id="Path_27" stroke="#8D3792" stroke-width="0.779"></path>
                    <path d="M408.549,200.932 C408.549,202.003985 407.679985,202.873 406.608,202.873 C405.536244,202.872448 404.667552,202.003756 404.667,200.932 C404.667552,199.860244 405.536244,198.991552 406.608,198.991 C407.679985,198.991 408.549,199.860015 408.549,200.932 L408.549,200.932 Z" id="Path_28" stroke="#8D3792" stroke-width="0.779"></path>
                    <path d="M52.561,183.46 C52.561,184.531985 51.6919847,185.401 50.62,185.401 C49.5482439,185.400448 48.6795517,184.531756 48.679,183.46 C48.6795517,182.388244 49.5482439,181.519552 50.62,181.519 C51.6919847,181.519 52.561,182.388015 52.561,183.46 L52.561,183.46 Z" id="Path_29" stroke="#8D3792" stroke-width="0.779"></path>
                    <g id="Group" transform="translate(92.210000, 58.000000)" fill="#FC3A91" fill-rule="nonzero">
                        <path d="M33.146,16.379 C33.146,25.291219 25.921219,32.5160003 17.009,32.5160003 C12.7287737,32.5167958 8.62359663,30.8169718 5.59683199,27.7905823 C2.57006735,24.7641927 0.87,20.6592264 0.87,16.379 C0.87,7.46678099 8.09478099,0.242 17.007,0.242 C21.2870637,0.242 25.3919325,1.94172911 28.4185821,4.96800365 C31.4452318,7.99427819 33.146,12.0989363 33.146,16.379 Z" id="Path_30-2"></path>
                    </g>
                    <path d="M374.331,206.877 C374.330448,211.768196 370.365196,215.733 365.474,215.733 C360.582804,215.733 356.617552,211.768196 356.617,206.877 C356.616735,204.527804 357.549763,202.274735 359.210802,200.613509 C360.87184,198.952283 363.124804,198.019 365.474,198.019 C367.823196,198.019 370.07616,198.952283 371.737198,200.613509 C373.398237,202.274735 374.331265,204.527804 374.331,206.877 Z" id="Path_31" fill="#FDC055" fill-rule="nonzero"></path>
                    <path d="M392.534,172.662 C392.533448,181.975501 384.983501,189.525448 375.67,189.526 C366.356108,189.526 358.805552,181.975892 358.805,172.662 C358.805,168.189124 360.581843,163.899445 363.744644,160.736644 C366.907445,157.573843 371.197124,155.797 375.67,155.797 C384.983892,155.797552 392.534,163.348108 392.534,172.662 Z" id="Path_32" stroke="#FC3A91" stroke-width="0.779"></path>
                    <circle id="Ellipse_1" stroke="#FC3A91" stroke-width="0.779" cx="163.883" cy="65.041" r="21.536"></circle>
                    <circle id="Ellipse_2" stroke="#FC3A91" stroke-width="0.779" transform="translate(111.467550, 34.829837) rotate(-77.310000) translate(-111.467550, -34.829837) " cx="111.46755" cy="34.8298373" r="9.524"></circle>
                    <path d="M421.286,118.576 C422.083807,122.700228 419.484595,126.719078 415.396,127.683 L357.696,140.358 C355.701483,140.819477 353.605238,140.463691 351.874677,139.369974 C350.144117,138.276256 348.923141,136.535553 348.484,134.536 L348.484,134.536 C347.687295,130.411436 350.286498,126.392842 354.375,125.428 L412.075,112.753 C414.069393,112.291542 416.165513,112.647355 417.895914,113.74109 C419.626316,114.834826 420.84709,116.575524 421.286,118.575 L421.286,118.576 Z" id="Path_33" fill="#FC3A91" fill-rule="nonzero"></path>
                    <path d="M79.132,79.9 C79.132,84.079 76.626,87.944 72.446,88.531 L13.779,96.731 C9.55156276,97.2846217 5.63434405,94.4210908 4.879,90.225 L4.879,90.225 C4.879,86.045 7.385,82.181 11.566,81.594 L70.233,73.394 C74.460709,72.8393161 78.3785856,75.703328 79.133,79.9 L79.132,79.9 Z" id="Path_34" fill="#8D3792" fill-rule="nonzero"></path>
                    <path d="M269.295,248.982 C255.708445,245.5299 241.659072,244.262044 227.674,245.226 C208.738297,246.514114 190.299669,251.851665 173.604,260.878 C169.046,263.344 164.818,266.233 160.464,269.034 C155.118,272.469 149.006,275.802 142.539,276.242 C135.679253,276.707293 128.915644,274.428383 123.736211,269.906647 C118.556778,265.384911 115.385831,258.990778 114.921,252.131 C114.28,242.681 119.921,237.3 125.032,230.244 C130.65777,222.486288 133.395914,213.006602 132.773,203.444 C131.861,189.999 124.089,179.252 114.7,170.238 C105.649898,161.591256 98.7521424,150.943917 94.56,139.15 C92.1691079,132.344845 90.7124916,125.246784 90.23,118.05 C88.7997968,96.9773681 95.7997976,76.1997502 109.689894,60.288543 C123.579991,44.3773357 143.222224,34.6360791 164.295,33.208 C185.005,31.803 206.872,38.732 222.311,52.808 C226.869288,56.9993604 231.00911,61.6241325 234.672,66.617 C237.639974,70.8330366 242.573229,73.2193271 247.721,72.929 C250.865123,72.7208402 253.856868,71.4983162 256.247,69.445 L258.63,67.829 C260.017083,67.1190571 261.534277,66.6991835 263.089,66.595 C266.401158,66.3807129 269.644823,67.6052875 271.989,69.955 C274.135,72.102 274.896,75.606 275.984,78.321 C277.09235,80.9954156 278.8303,83.3625405 281.05,85.221 C285.579245,89.3504641 291.592374,91.4616828 297.709,91.07 C302.385075,90.7604326 306.846677,88.9936971 310.467,86.018 C310.467,86.018 320.043,79.137 324.257,70.605 C328.235,62.553 335.748,56.343 345.322,55.693 C351.871469,55.2482853 358.329326,57.4237281 363.274738,61.7406962 C368.220151,66.0576643 371.24796,72.162485 371.692,78.712 C372.25144,86.7788568 368.73828,94.5907592 362.332,99.525 C355.655,104.683 347.898,105.078 339.824,105.035 C333.349,104.812 326.194,109.583 324.397,115.751 C321.487,125.736 329.736,133.226 335.81,139.709 C342.403285,146.767466 347.377271,155.179388 350.385,164.358 C352.08992,169.594617 353.136955,175.022943 353.502,180.518 C354.696434,198.100486 348.856839,215.437256 337.268026,228.713924 C325.679213,241.990592 309.290614,250.119447 291.708,251.312 C284.474816,251.810125 277.208886,251.119643 270.199,249.268 L269.295,248.982 Z" id="Path_35" stroke="#707070" stroke-width="0.779"></path>
                    <circle id="Ellipse_3" stroke="#8D3792" stroke-width="0.779" cx="364.139" cy="42.716" r="8.372"></circle>
                    <g id="Group" transform="translate(354.210000, 82.000000)" fill="#8D3792" fill-rule="nonzero">
                        <path d="M28.486,14.22 C28.486,21.8255133 22.3205133,27.991 14.715,27.991 C7.10948671,27.991 0.944,21.8255133 0.944,14.22 C0.944,6.61448671 7.10948671,0.449 14.715,0.449 C22.3205133,0.449 28.486,6.61448671 28.486,14.22 L28.486,14.22 Z" id="Path_36-2"></path>
                    </g>
                </g>
                <g id="Group_3" transform="translate(161.105000, 88.312000)" fill="#FFFFFF" fill-rule="nonzero">
                    <g id="Group_1" transform="translate(84.894000, 0.000000)">
                        <polygon id="Path_1" points="27.64 20.113 27.64 6.107 14.478 10.897 14.478 24.904"></polygon>
                        <polygon id="Path_2" points="13.162 10.897 13.162 24.904 0 20.114 0 6.107"></polygon>
                        <polygon id="Path_3" points="26.982 4.791 13.82 9.581 0.658 4.791 13.82 0.001"></polygon>
                    </g>
                    <polygon id="Path_4" points="105.295 28.667 92.133 33.457 78.971 38.247 78.971 52.254 92.133 47.464 105.295 42.674 118.457 37.884 118.457 23.877"></polygon>
                    <polygon id="Path_5" points="65.81 106.505 65.81 43.038 52.648 47.828 39.486 52.618 26.324 57.408 13.162 62.198 -2.27373675e-13 66.988 -2.27373675e-13 119.666 39.486 119.666 39.486 79.995 26.324 84.785 26.324 106.504 13.162 106.504 13.162 76.204 26.324 71.414 39.486 66.624 52.648 61.834 52.648 119.666 92.134 119.666 92.134 106.505"></polygon>
                    <rect id="Rectangle_3" x="78.972" y="106.528" width="13.162" height="13.139"></rect>
                    <rect id="Rectangle_4" x="105.295" y="106.528" width="13.162" height="13.139"></rect>
                    <polygon id="Path_6" points="118.457 65.259 118.457 51.252 105.295 56.042 92.133 60.832 78.971 65.622 78.971 106.522 92.133 106.522 92.133 74.84 105.295 70.05 105.295 106.528 118.457 106.528"></polygon>
                    <g id="Group_2" transform="translate(0.000000, 135.461000)">
                        <path d="M11.179,7.894 C11.1840745,8.25966827 11.132807,8.62393727 11.027,8.974 C10.9354807,9.2739374 10.8007308,9.55893329 10.627,9.82 C10.4665689,10.0579014 10.2690672,10.2685699 10.042,10.444 C9.82733142,10.6101259 9.59450943,10.7513623 9.348,10.865 C9.11470143,10.9723885 8.87020474,11.053552 8.619,11.107 C8.38899617,11.1571633 8.15440442,11.1833035 7.919,11.185 L0.096,11.185 L0.096,9.157 L7.919,9.157 C8.25703852,9.17745471 8.58773866,9.05266907 8.828,8.814 C9.05277414,8.5614708 9.16915801,8.23063889 9.152,7.893 C9.15386927,7.71760957 9.1247557,7.54326665 9.066,7.378 C9.01173456,7.22799089 8.92810433,7.09030697 8.82,6.973 C8.71108315,6.85704551 8.57791571,6.76655995 8.43,6.708 C8.2674523,6.64355294 8.09384135,6.61161667 7.919,6.614 L3.255,6.614 C2.89459192,6.6088289 2.53697843,6.54984458 2.194,6.439 C1.80909614,6.31923083 1.45041744,6.1275057 1.137,5.874 C0.796898173,5.59504646 0.520382006,5.24658835 0.326,4.852 C-0.105602683,3.86895375 -0.105602683,2.75004625 0.326,1.767 C0.704273597,1.00283243 1.37952855,0.427347479 2.194,0.175 C2.53697489,0.0641408322 2.89459059,0.0051561505 3.255,1.13686838e-13 L10.155,1.13686838e-13 L10.155,2.028 L3.255,2.028 C2.91832029,2.00911233 2.58999552,2.13715899 2.355,2.379 C2.13110387,2.63482252 2.01498329,2.96741481 2.031,3.307 C2.01249193,3.64573678 2.12899977,3.97799989 2.355,4.231 C2.59335806,4.46660404 2.92040027,4.59015333 3.255,4.571 L7.935,4.571 C8.16871229,4.57832729 8.40114968,4.60847047 8.629,4.661 C8.88069411,4.71781494 9.12522238,4.80267866 9.358,4.914 C9.60399531,5.03111982 9.83554812,5.1764276 10.048,5.347 C10.2713007,5.52683174 10.4670465,5.73841237 10.629,5.975 C10.804172,6.23380889 10.9390417,6.51770955 11.029,6.817 C11.1329266,7.16640305 11.1834966,7.52949622 11.179,7.894 L11.179,7.894 Z" id="Path_7"></path>
                        <path d="M23.837,11.185 L21.809,11.185 L21.809,8.44 L14.68,8.44 L14.68,11.186 L12.652,11.186 L12.652,5.593 C12.6435787,4.82136446 12.7866128,4.05557149 13.073,3.339 C13.3388251,2.67541115 13.7369011,2.07285348 14.243,1.568 C14.7504058,1.06900037 15.35257,0.676624618 16.014,0.414 C16.7238867,0.133094763 17.4815996,-0.00717212527 18.245,0.001 L22.816,0.001 C22.9532026,4.57185464e-05 23.089208,0.0265667754 23.216,0.079 C23.4637603,0.180559236 23.6604408,0.377239697 23.762,0.625 C23.8145375,0.751760589 23.8410628,0.887787353 23.8400307,1.025 L23.837,11.185 Z M14.68,6.411 L21.809,6.411 L21.809,2.028 L18.244,2.028 C18.182,2.028 18.0506667,2.037 17.85,2.055 C17.6151051,2.07975444 17.3828643,2.1252656 17.156,2.191 C16.8681866,2.2737048 16.5897037,2.3859693 16.325,2.526 C16.0239975,2.68577549 15.7532531,2.89695606 15.525,3.15 C15.2658483,3.44219343 15.062484,3.77943913 14.925,4.145 C14.7550242,4.60798198 14.6742679,5.09896654 14.687,5.592 L14.68,6.411 Z" id="Path_8"></path>
                        <path d="M36.465,11.1850454 L27.214,11.1850454 C27.0748227,11.186297 26.9367885,11.1597781 26.808,11.107 C26.5632722,11.0078288 26.3691712,10.8137278 26.27,10.569 C26.21717,10.4402269 26.1906491,10.3021822 26.1919509,10.163 L26.1919509,0 L28.22,0 L28.22,9.157 L36.465,9.157 L36.465,11.1850454 Z" id="Path_9"></path>
                        <path d="M48.013,11.185 L40.697,11.185 C40.384489,11.1801128 40.0743086,11.1302684 39.776,11.037 C39.4391608,10.9360548 39.1252836,10.7702842 38.852,10.549 C38.5564476,10.3080969 38.3145947,10.007995 38.142,9.668 C37.9402496,9.25444215 37.8424221,8.79791391 37.857,8.338 L37.857,1.021 C37.85591,0.883784828 37.8824363,0.747752688 37.935,0.621 C37.9848993,0.499388144 38.0575296,0.388406315 38.149,0.294 C38.2409394,0.199673698 38.3511985,0.125146735 38.473,0.075 C38.6018116,0.0222993458 38.73983,-0.00421650945 38.879,-0.00304003895 L48.013,-0.00304003895 L48.013,2.025 L39.885,2.025 L39.885,8.335 C39.8700086,8.55788962 39.9461576,8.77731422 40.096,8.943 C40.2643202,9.09379381 40.4865739,9.16992291 40.712,9.154 L48.012,9.154 L48.013,11.185 Z M47.1,6.614 L40.7,6.614 L40.7,4.57 L47.1,4.57 L47.1,6.614 Z" id="Path_10"></path>
                        <path d="M69.451,0 L67.579,10.483 C67.5401127,10.686007 67.4423935,10.8730994 67.298,11.021 C67.1557695,11.1702143 66.9704681,11.271256 66.768,11.31 C66.5654831,11.3466651 66.3566377,11.3222998 66.168,11.24 C65.9817392,11.1597582 65.8251368,11.0234303 65.72,10.85 L62.007,4.75 L58.286,10.85 C58.2003337,10.9983963 58.0749683,11.1199522 57.924,11.201 C57.7706676,11.284489 57.5985823,11.3275104 57.424,11.326 C56.9314152,11.3271827 56.5113346,10.9694777 56.434,10.483 L54.546,0 L56.605,0 L57.946,7.386 L61.146,2.286 C61.2320221,2.1375333 61.3577265,2.01598442 61.509,1.935 C61.6622838,1.85138642 61.834402,1.80835688 62.009,1.81 C62.1806834,1.80882654 62.3497775,1.85187492 62.5,1.935 C62.6517409,2.01931775 62.7802338,2.13990864 62.874,2.286 L66.056,7.386 L67.398,0 L69.451,0 Z" id="Path_11"></path>
                        <polygon id="Path_12" points="73.225 4.571 80.346 4.571 80.346 0 82.374 0 82.374 11.185 80.346 11.185 80.346 6.614 73.225 6.614 73.225 11.185 71.197 11.185 71.197 0 73.225 0"></polygon>
                        <path d="M95.72,11.185 L93.692,11.185 L93.692,8.44 L86.563,8.44 L86.563,11.186 L84.535,11.186 L84.535,5.593 C84.5265787,4.82136446 84.6696128,4.05557149 84.956,3.339 C85.2217506,2.6753721 85.6198359,2.0728002 86.126,1.568 C86.6334228,1.06902151 87.2355825,0.676648702 87.897,0.414 C88.6068938,0.133119308 89.3646018,-0.00714668091 90.128,0.001 L94.699,0.001 C94.8362001,7.2700708e-05 94.9722002,0.0265927249 95.099,0.079 C95.3463201,0.181219709 95.5427803,0.377679949 95.645,0.625 C95.6973555,0.75181538 95.7238735,0.88780496 95.7230209,1.025 L95.72,11.185 Z M86.563,6.411 L93.692,6.411 L93.692,2.028 L90.127,2.028 C90.065,2.028 89.9336667,2.037 89.733,2.055 C89.4981051,2.07975444 89.2658643,2.1252656 89.039,2.191 C88.7511843,2.27369803 88.4727006,2.3859628 88.208,2.526 C87.9069975,2.68577549 87.6362531,2.89695606 87.408,3.15 C87.1488117,3.4421665 86.9454431,3.77941931 86.808,4.145 C86.638071,4.60799432 86.5573162,5.09896986 86.57,5.592 L86.563,6.411 Z" id="Path_13"></path>
                        <polygon id="Path_14" points="108.184 2.028 103.715 2.028 103.715 11.185 101.687 11.185 101.687 2.028 97.21 2.028 97.21 0 108.184 0"></polygon>
                        <path d="M118.457,3.76 C118.452451,4.07483238 118.402606,4.38737063 118.309,4.688 C118.207285,5.0257391 118.041614,5.34078505 117.821,5.616 C117.580898,5.91379269 117.280259,6.15716712 116.939,6.33 C116.528119,6.53124311 116.074301,6.62907833 115.617,6.615 L113.893,6.615 L113.893,8.44 L111.857,8.44 L111.857,5.593 C111.855862,5.457722 111.882406,5.32364084 111.935,5.199 C111.985212,5.0784437 112.057827,4.9685018 112.149,4.875 C112.240402,4.78111442 112.349052,4.70573793 112.469,4.653 C112.59297,4.59784315 112.727318,4.56988252 112.863,4.571 L115.617,4.571 C115.835585,4.58635231 116.051343,4.51443298 116.217,4.371 C116.366109,4.20509061 116.440895,3.98542722 116.424,3.763 L116.424,2.85 C116.439964,2.62890807 116.3681,2.4104393 116.224,2.242 C116.059296,2.09050686 115.839141,2.0141043 115.616,2.031 L109.111,2.031 L109.111,0 L115.616,0 C115.931131,0.00469119953 116.24384,0.0559107738 116.544,0.152 C116.879811,0.255442538 117.193233,0.420972774 117.468,0.64 C117.764175,0.879255626 118.005027,1.1798095 118.174,1.521 C118.372084,1.93426219 118.468431,2.3889145 118.455,2.847 L118.457,3.76 Z M113.871,10.16 C113.872609,10.4272977 113.767136,10.6841135 113.578125,10.8731249 C113.389113,11.0621363 113.132298,11.1676087 112.865,11.1660181 C112.732373,11.1664693 112.601039,11.1399303 112.479,11.088 C112.359398,11.0377674 112.250712,10.9647439 112.159,10.873 C112.066945,10.7807066 111.992703,10.6722251 111.94,10.553 C111.884991,10.4289822 111.857037,10.294667 111.858,10.159 C111.857623,10.0259712 111.885576,9.89438692 111.94,9.773 C112.045523,9.53254626 112.237546,9.34052259 112.478,9.235 C112.599387,9.18057566 112.730971,9.15262252 112.864,9.153 C112.999661,9.15209773 113.133963,9.18004901 113.258,9.235 C113.377135,9.28742335 113.485608,9.36132031 113.578,9.453 C113.669607,9.54482481 113.742611,9.65348233 113.793,9.773 C113.845384,9.8963021 113.87193,10.0290351 113.871,10.163 L113.871,10.16 Z" id="Path_15"></path>
                    </g>
                </g>
            </g>
            <!-- <text id="We-bring-your-busine" font-family="SavoyeLetPlain, Savoye LET" font-size="36" font-weight="normal" fill="#FFFFFF">
                <tspan x="101" y="333">We bring your business online</tspan>
            </text> -->
        </g>
    </g>
</svg>